<svg xmlns="http://www.w3.org/2000/svg" viewBox="0 0 800 450" width="100%" height="100%">
  <defs>
    <linearGradient id="bgGrad" x1="0%" y1="0%" x2="100%" y2="100%">
      <stop offset="0%" stop-color="#0f172a" />
      <stop offset="100%" stop-color="#1e293b" />
    </linearGradient>
    <linearGradient id="cardGrad" x1="0%" y1="0%" x2="0%" y2="100%">
      <stop offset="0%" stop-color="#1e293b" stop-opacity="0.8"/>
      <stop offset="100%" stop-color="#0f172a" stop-opacity="0.9"/>
    </linearGradient>
  </defs>
  
  <rect width="800" height="450" fill="url(#bgGrad)" />
  
  <g stroke="#334155" stroke-width="0.5" opacity="0.3">
    <path d="M 0,50 L 800,50 M 0,100 L 800,100 M 0,150 L 800,150 M 0,200 L 800,200 M 0,250 L 800,250 M 0,300 L 800,300 M 0,350 L 800,350 M 0,400 L 800,400" />
    <path d="M 100,0 L 100,450 M 200,0 L 200,450 M 300,0 L 300,450 M 400,0 L 400,450 M 500,0 L 500,450 M 600,0 L 600,450 M 700,0 L 700,450" />
  </g>

  <rect x="140" y="80" width="520" height="290" rx="12" fill="url(#cardGrad)" stroke="#475569" stroke-width="2" />
  
  <circle cx="165" cy="105" r="5" fill="#ef4444" />
  <circle cx="180" cy="105" r="5" fill="#f59e0b" />
  <circle cx="195" cy="105" r="5" fill="#10b981" />
  <rect x="220" y="97" width="120" height="16" rx="4" fill="#334155" opacity="0.5" />

  <g transform="translate(350, 140)">
    <path d="M 50,0 L 90,15 L 90,60 C 90,90 50,110 50,110 C 50,110 10,90 10,60 L 10,15 Z" fill="#38bdf8" opacity="0.15" stroke="#38bdf8" stroke-width="2" />
    <path d="M 35,55 L 45,65 L 65,45" stroke="#38bdf8" stroke-width="4" fill="none" stroke-linecap="round" stroke-linejoin="round" />
  </g>

  <text x="400" y="290" font-family="system-ui, sans-serif" font-weight="800" font-size="22" fill="#ffffff" text-anchor="middle">CREDIT REPORT AUDITING</text>
  <text x="400" y="320" font-family="system-ui, sans-serif" font-weight="600" font-size="14" fill="#38bdf8" text-anchor="middle">Official, Secure, and Free Verification</text>
</svg>
