<svg xmlns="http://www.w3.org/2000/svg" viewBox="0 0 800 450" width="100%" height="100%">
  <defs>
    <linearGradient id="bgGrad" x1="0%" y1="0%" x2="100%" y2="100%">
      <stop offset="0%" stop-color="#0f172a" />
      <stop offset="100%" stop-color="#1e293b" />
    </linearGradient>
    <linearGradient id="cardGrad" x1="0%" y1="0%" x2="0%" y2="100%">
      <stop offset="0%" stop-color="#1e293b" stop-opacity="0.8"/>
      <stop offset="100%" stop-color="#0f172a" stop-opacity="0.9"/>
    </linearGradient>
  </defs>
  
  <rect width="800" height="450" fill="url(#bgGrad)" />
  
  <g stroke="#334155" stroke-width="0.5" opacity="0.3">
    <path d="M 0,50 L 800,50 M 0,100 L 800,100 M 0,150 L 800,150 M 0,200 L 800,200 M 0,250 L 800,250 M 0,300 L 800,300 M 0,350 L 800,350 M 0,400 L 800,400" />
    <path d="M 100,0 L 100,450 M 200,0 L 200,450 M 300,0 L 300,450 M 400,0 L 400,450 M 500,0 L 500,450 M 600,0 L 600,450 M 700,0 L 700,450" />
  </g>

  <rect x="120" y="80" width="560" height="290" rx="12" fill="url(#cardGrad)" stroke="#475569" stroke-width="2" />
  
  <circle cx="145" cy="105" r="5" fill="#ef4444" />
  <circle cx="160" cy="105" r="5" fill="#f59e0b" />
  <circle cx="175" cy="105" r="5" fill="#10b981" />
  <rect x="200" y="97" width="120" height="16" rx="4" fill="#334155" opacity="0.5" />

  <text x="400" y="155" font-family="system-ui, sans-serif" font-weight="800" font-size="24" fill="#ffffff" text-anchor="middle">NO-SPEND CHALLENGE GRID</text>
  <text x="400" y="185" font-family="system-ui, sans-serif" font-weight="600" font-size="15" fill="#38bdf8" text-anchor="middle">Interrupting Autopilot Habit Leaks</text>

  <g transform="translate(190, 215)">
    <rect x="0" y="0" width="90" height="70" rx="6" fill="#1e293b" stroke="#10b981" stroke-width="2" />
    <text x="45" y="30" font-family="system-ui, sans-serif" font-weight="bold" font-size="12" fill="#ffffff" text-anchor="middle">WEEKEND</text>
    <text x="45" y="50" font-family="system-ui, sans-serif" font-size="10" fill="#10b981" text-anchor="middle">Zero Friction</text>

    <rect x="110" y="0" width="90" height="70" rx="6" fill="#1e293b" stroke="#38bdf8" stroke-width="2" />
    <text x="155" y="30" font-family="system-ui, sans-serif" font-weight="bold" font-size="12" fill="#ffffff" text-anchor="middle">7-DAY</text>
    <text x="155" y="50" font-family="system-ui, sans-serif" font-size="10" fill="#38bdf8" text-anchor="middle">Habit Reset</text>

    <rect x="220" y="0" width="90" height="70" rx="6" fill="#1e293b" stroke="#f59e0b" stroke-width="1.5" />
    <text x="265" y="30" font-family="system-ui, sans-serif" font-weight="bold" font-size="12" fill="#ffffff" text-anchor="middle">CATEGORY</text>
    <text x="265" y="50" font-family="system-ui, sans-serif" font-size="10" fill="#f59e0b" text-anchor="middle">Target Dining</text>

    <rect x="330" y="0" width="90" height="70" rx="6" fill="#1e293b" stroke="#475569" stroke-width="1" opacity="0.6" />
    <text x="375" y="30" font-family="system-ui, sans-serif" font-weight="bold" font-size="12" fill="#94a3b8" text-anchor="middle">30-DAY</text>
    <text x="375" y="50" font-family="system-ui, sans-serif" font-size="10" fill="#94a3b8" text-anchor="middle">Advanced</text>
  </g>

  <text x="400" y="325" font-family="system-ui, sans-serif" font-size="12" fill="#94a3b8" text-anchor="middle">A Deliberate, Short Pause to Expose and Correct Discretionary Leaks</text>
</svg>
