<svg xmlns="http://www.w3.org/2000/svg" viewBox="0 0 800 450" width="100%" height="100%">
  <defs>
    <linearGradient id="bgGrad" x1="0%" y1="0%" x2="100%" y2="100%">
      <stop offset="0%" stop-color="#0f172a" />
      <stop offset="100%" stop-color="#1e293b" />
    </linearGradient>
    <linearGradient id="cardGrad" x1="0%" y1="0%" x2="0%" y2="100%">
      <stop offset="0%" stop-color="#1e293b" stop-opacity="0.8"/>
      <stop offset="100%" stop-color="#0f172a" stop-opacity="0.9"/>
    </linearGradient>
  </defs>
  
  <rect width="800" height="450" fill="url(#bgGrad)" />
  
  <g stroke="#334155" stroke-width="0.5" opacity="0.3">
    <path d="M 0,50 L 800,50 M 0,100 L 800,100 M 0,150 L 800,150 M 0,200 L 800,200 M 0,250 L 800,250 M 0,300 L 800,300 M 0,350 L 800,350 M 0,400 L 800,400" />
    <path d="M 100,0 L 100,450 M 200,0 L 200,450 M 300,0 L 300,450 M 400,0 L 400,450 M 500,0 L 500,450 M 600,0 L 600,450 M 700,0 L 700,450" />
  </g>

  <rect x="120" y="80" width="560" height="290" rx="12" fill="url(#cardGrad)" stroke="#475569" stroke-width="2" />
  
  <circle cx="145" cy="105" r="5" fill="#ef4444" />
  <circle cx="160" cy="105" r="5" fill="#f59e0b" />
  <circle cx="175" cy="105" r="5" fill="#10b981" />
  <rect x="200" y="97" width="120" height="16" rx="4" fill="#334155" opacity="0.5" />

  <text x="400" y="160" font-family="system-ui, sans-serif" font-weight="800" font-size="24" fill="#ffffff" text-anchor="middle">WEEKLY BUDGET FLOW</text>
  <text x="400" y="190" font-family="system-ui, sans-serif" font-weight="600" font-size="15" fill="#38bdf8" text-anchor="middle">7-Day Tracking Blocks &amp; Execution Cycles</text>

  <g transform="translate(210, 220)" stroke="#475569" stroke-width="1.5" fill="none">
    <rect x="0" y="0" width="45" height="45" rx="4" fill="#1e293b" stroke="#38bdf8" />
    <rect x="55" y="0" width="45" height="45" rx="4" fill="#1e293b" stroke="#38bdf8" />
    <rect x="110" y="0" width="45" height="45" rx="4" fill="#1e293b" stroke="#38bdf8" />
    <rect x="165" y="0" width="45" height="45" rx="4" fill="#1e293b" stroke="#38bdf8" />
    <rect x="220" y="0" width="45" height="45" rx="4" fill="#1e293b" stroke="#38bdf8" />
    <rect x="275" y="0" width="45" height="45" rx="4" fill="#1e293b" stroke="#38bdf8" />
    <rect x="330" y="0" width="45" height="45" rx="4" fill="#1e293b" stroke="#10b981" stroke-width="2" />
    
    <path d="M 15,22 L 20,27 L 30,17" stroke="#38bdf8" stroke-width="2" fill="none" />
    <path d="M 70,22 L 75,27 L 85,17" stroke="#38bdf8" stroke-width="2" fill="none" />
    <path d="M 125,22 L 130,27 L 140,17" stroke="#38bdf8" stroke-width="2" fill="none" />
    <path d="M 180,22 L 185,27 L 195,17" stroke="#38bdf8" stroke-width="2" fill="none" />
    <path d="M 235,22 L 240,27 L 250,17" stroke="#38bdf8" stroke-width="2" fill="none" />
    <path d="M 290,22 L 295,27 L 305,17" stroke="#38bdf8" stroke-width="2" fill="none" />
  </g>
  
  <text x="435" y="295" font-family="system-ui, sans-serif" font-weight="bold" font-size="11" fill="#10b981" text-anchor="middle">Sunday Check-in</text>
  <text x="400" y="335" font-family="system-ui, sans-serif" font-size="12" fill="#94a3b8" text-anchor="middle">Short planning horizons minimize budgeting fatigue.</text>
</svg>
